<svg xmlns="http://www.w3.org/2000/svg" viewBox="0 0 289.04 252.04"><defs><style>.cls-1{fill:#e8bd9a;}.cls-2,.cls-3,.cls-4,.cls-5,.cls-8{fill:none;}.cls-2,.cls-3,.cls-4,.cls-5,.cls-7,.cls-8{stroke:#280003;stroke-miterlimit:10;}.cls-2{stroke-width:5px;}.cls-3{stroke-width:4.84px;}.cls-4{stroke-width:4.76px;}.cls-5{stroke-width:4px;}.cls-6{fill:#ff8aa4;}.cls-7{fill:#ffdb6a;}.cls-7,.cls-8{stroke-width:1.57px;}</style></defs><g id="Layer_2" data-name="Layer 2"><g id="Layer_1-2" data-name="Layer 1"><path class="cls-1" d="M85.79,3.68c22,.52,37.55,20.92,37.55,20.92a50,50,0,0,1,17.22-3.08C112,61.85,57.3,79.71,57.3,79.71c6.62-13.52,14.4-17.14,14.4-17.14-8.65-37.09-1.34-49.31-1.34-49.31C74.68,1.6,85.79,3.68,85.79,3.68Z"/><path class="cls-2" d="M238,130.35s8.77-39.29-14.87-68.07c0,0,7.16-49.75-14.61-58.61,0,0-19.68-.38-42.61,21.11A69.93,69.93,0,0,0,125,23.43S104.92-1.53,80.8,3.06c0,0-22.18,2.76-10.7,58.5,0,0-29.11,18.2-18.28,68.79-6,22.44,0,32.19,0,32.19-2.42,30.17,10.54,50,10.54,50-9,13.5-.79,33.28-.79,33.28,26.25.75,32.58-19.5,32.58-19.5,49.17,15,100.17,0,100.17,0,3,23.25,27.75,23.25,27.75,23.25,12-9.75,4.5-36,4.5-36,18.75-27.75,13-47.93,13-47.93C245.07,140,238,130.35,238,130.35Z"/><path class="cls-3" d="M50.77,129c-4.61-11.44-12.8-25.76-21.46-23.33-20.95,5.89,5.16,47.92,21.46,54.44"/><path class="cls-4" d="M239.2,131.18c4.47-11.45,12.4-25.76,20.78-23.33,20.28,5.88-5,47.91-20.78,54.43"/><line class="cls-5" x1="123.91" y1="85.03" x2="108.55" y2="79.39"/><line class="cls-5" x1="103.93" y1="89.13" x2="123.91" y2="85.03"/><line class="cls-5" x1="113.92" y1="96.46" x2="125.1" y2="84.03"/><path class="cls-5" d="M128.42,102.9s14.64,7.34,34,0"/><circle class="cls-6" cx="144.99" cy="94.29" r="5.52"/><line class="cls-5" x1="164.19" y1="84.18" x2="179.54" y2="78.54"/><line class="cls-5" x1="184.17" y1="88.28" x2="164.19" y2="84.18"/><line class="cls-5" x1="174.18" y1="95.61" x2="162.99" y2="83.18"/><path class="cls-7" d="M26.47,71.87C8.4,73.15,4.86,85.63,4.86,85.63c-.68,1.71,2.45,1.51,2.45,1.51-8.61,4.84-6.22,12-6.22,12a2.72,2.72,0,0,0,4.56.53c-6.72,6-1.91,8.61-1.91,8.61a5.68,5.68,0,0,0,6.43-1.3c-6.29,7.78-1.25,9.37-1.25,9.37,1.7,5.18,5.07-2.14,5.07-2.14,1.83,8.64,4.82,9.28,4.82,9.28,3.6.46,3.46-3.81,3.46-3.81,3.11,7.17,7.85,5.58,7.85,5.58,3.52-.84,4.15-3.09,4.15-3.09,3,7.88,7.88,1.84,7.88,1.84,6.78,1.41,10.17-6.14,10.17-6.14a4.19,4.19,0,0,0,.58-5.22c5.69-.7,1.32-13.15,1.32-13.15,5.35,2.91,4.63-2,4.63-2C53,71.66,26.47,71.87,26.47,71.87Z"/><path class="cls-8" d="M23.79,91.51c-11.64,4.87-8.86,13.59-1.18,9"/><path class="cls-8" d="M22.61,100.55c-2.51,4.09-1,10.14,7.82,4.18"/><path class="cls-8" d="M30.43,104.73c.18,5,3.61,3.72,6.4.18"/><path class="cls-8" d="M41.28,101.76c1.85,2.53,1.95,3.14,2,5.11"/><path class="cls-7" d="M262.57,71.87c18.07,1.28,21.61,13.76,21.61,13.76.68,1.71-2.45,1.51-2.45,1.51,8.61,4.84,6.22,12,6.22,12a2.72,2.72,0,0,1-4.56.53c6.72,6,1.92,8.61,1.92,8.61a5.7,5.7,0,0,1-6.44-1.3c6.29,7.78,1.25,9.37,1.25,9.37-1.7,5.18-5.07-2.14-5.07-2.14-1.83,8.64-4.82,9.28-4.82,9.28-3.6.46-3.46-3.81-3.46-3.81-3.11,7.17-7.85,5.58-7.85,5.58-3.52-.84-4.15-3.09-4.15-3.09-3,7.88-7.88,1.84-7.88,1.84-6.77,1.41-10.17-6.14-10.17-6.14a4.18,4.18,0,0,1-.57-5.22c-5.7-.7-1.33-13.15-1.33-13.15-5.35,2.91-4.63-2-4.63-2C236,71.66,262.57,71.87,262.57,71.87Z"/><path class="cls-8" d="M265.25,91.51c11.64,4.87,8.86,13.59,1.18,9"/><path class="cls-8" d="M266.43,100.55c2.52,4.09,1,10.14-7.82,4.18"/><path class="cls-8" d="M258.61,104.73c-.18,5-3.6,3.72-6.4.18"/><path class="cls-8" d="M247.76,101.76c-1.84,2.53-1.95,3.14-2,5.11"/></g></g></svg>