<svg xmlns="http://www.w3.org/2000/svg" viewBox="0 0 197.52 252.04"><defs><style>.cls-1{fill:#e8bd9a;}.cls-2,.cls-3,.cls-5{fill:none;}.cls-2,.cls-3,.cls-4,.cls-5{stroke:#280003;stroke-miterlimit:10;}.cls-2{stroke-width:5px;}.cls-3{stroke-width:4px;}.cls-4{fill:#f5625e;}.cls-4,.cls-5{stroke-width:3px;}</style></defs><g id="Layer_2" data-name="Layer 2"><g id="Layer_1-2" data-name="Layer 1"><path class="cls-1" d="M40.25,3.38c22,1,37,21.68,37,21.68A49.48,49.48,0,0,1,94.48,22.3C65.21,62.14,10.38,79,10.38,79c6.85-13.41,14.68-16.88,14.68-16.88-7.89-37.31-.38-49.41-.38-49.41C29.21,1.08,40.25,3.38,40.25,3.38Z"/><path class="cls-2" d="M191.32,130.35s8.77-39.29-14.86-68.07c0,0,7.15-49.75-14.62-58.61,0,0-19.68-.38-42.6,21.11a70,70,0,0,0-40.86-1.35S58.26-1.53,34.14,3.06c0,0-22.18,2.76-10.7,58.5,0,0-29.11,18.2-18.27,68.79-6,22.44,0,32.19,0,32.19-2.42,30.17,10.53,50,10.53,50-9,13.5-.78,33.28-.78,33.28,26.25.75,32.57-19.5,32.57-19.5,49.18,15,100.18,0,100.18,0,3,23.25,27.75,23.25,27.75,23.25,12-9.75,4.5-36,4.5-36,18.75-27.75,13-47.93,13-47.93C198.41,140,191.32,130.35,191.32,130.35Z"/><path class="cls-3" d="M47.55,80.53C55.14,90.55,70.2,89,74.67,78"/><path class="cls-3" d="M117.14,80.53c7.58,10,22.64,8.45,27.11-2.56"/><line class="cls-3" x1="86.46" y1="91.81" x2="102.58" y2="105.38"/><line class="cls-3" x1="86.34" y1="105.25" x2="102.11" y2="91.93"/><path class="cls-3" d="M25.49,169.28c11.84-3.86,29.86-7.35,32.63,1.79,3.28,10.83-12.8,16.69-21.71,21.31"/><path class="cls-3" d="M172.38,167.49c-12.34-1.74-30.69-2-31.82,7.45-1.34,11.24,15.51,14.2,25.09,17.2"/><path class="cls-4" d="M94.46,98.71l-7.14,6.09c7.14,8.17,14.63,0,14.63,0Z"/><polygon class="cls-4" points="61.11 140.95 98.76 148.72 137.96 140.95 137.96 192.14 98.76 205.07 61.11 192.38 61.11 140.95"/><line class="cls-5" x1="98.76" y1="149.95" x2="98.76" y2="204.2"/></g></g></svg>