<svg xmlns="http://www.w3.org/2000/svg" viewBox="0 0 255.82 266.87"><defs><style>.cls-1{fill:#e8bd9a;}.cls-2,.cls-3,.cls-8{fill:none;}.cls-2,.cls-3,.cls-5{stroke:#280003;}.cls-10,.cls-2,.cls-3,.cls-5,.cls-8{stroke-miterlimit:10;}.cls-2{stroke-width:5px;}.cls-3{stroke-width:4px;}.cls-4{fill:#fabdd5;}.cls-5{fill:#7bbab5;}.cls-10,.cls-5,.cls-8{stroke-width:3px;}.cls-6{fill:#f0233f;}.cls-7{fill:#8ec5e6;}.cls-10,.cls-8{stroke:#000;}.cls-9{fill:#fdc350;}.cls-10{fill:#fff;}</style></defs><g id="Layer_2" data-name="Layer 2"><g id="Layer_1-2" data-name="Layer 1"><path class="cls-1" d="M68.71,18.51c22,.52,37.55,20.92,37.55,20.92a49.88,49.88,0,0,1,17.22-3.09c-28.59,40.34-83.26,58.2-83.26,58.2C46.84,81,54.62,77.4,54.62,77.4,46,40.31,53.28,28.08,53.28,28.08,57.6,16.42,68.71,18.51,68.71,18.51Z"/><path class="cls-2" d="M220.9,145.18s8.77-39.3-14.87-68.08c0,0,7.16-49.74-14.61-58.6,0,0-19.68-.39-42.61,21.11A70,70,0,0,0,108,38.25S87.84,13.3,63.72,17.89c0,0-22.18,2.76-10.7,58.49,0,0-29.11,18.2-18.28,68.8-6,22.44,0,32.19,0,32.19-2.41,30.16,10.54,50,10.54,50-9,13.5-.78,33.28-.78,33.28,26.25.75,32.57-19.5,32.57-19.5,49.18,15,100.18,0,100.18,0,3,23.25,27.75,23.25,27.75,23.25,12-9.75,4.5-36,4.5-36,18.75-27.75,13-47.94,13-47.94C228,154.87,220.9,145.18,220.9,145.18Z"/><path class="cls-3" d="M76.43,95.86c6.61-10.69,21.75-10.55,27.23,0"/><path class="cls-3" d="M150.59,96.37c6.61-10.69,21.75-10.55,27.23,0"/><line class="cls-3" x1="117.63" y1="99.11" x2="134" y2="112.36"/><line class="cls-3" x1="133.27" y1="98.92" x2="117.77" y2="112.55"/><path class="cls-2" d="M33.69,143.81c-4.91-11.45-13.64-25.76-22.88-23.33-22.33,5.88,5.5,47.91,22.88,54.43"/><circle class="cls-4" cx="86.87" cy="108.3" r="11.44"/><circle class="cls-4" cx="167.27" cy="108.3" r="11.44"/><path class="cls-5" d="M221.89,126.36c2.9,4.5,0,9,0,9-37.39,38-146.24,71.53-146.24,71.53l-6.33-6.49C163.32,175.61,221.89,126.36,221.89,126.36Z"/><path class="cls-5" d="M69.87,198.56c4.75,1.75,5.75,8.33,5.75,8.33-1.5,9.17-7,21.67-7,21.67-1.75,3.25-7.25,2-7.25,2-1.25-1.76-1.85-8.52-1.85-8.52C63.87,218.56,69.87,198.56,69.87,198.56Z"/><polygon class="cls-6" points="128.26 9.43 131.17 14.18 118.03 39.82 103.27 34.09 104.67 24.71 110.63 17.01 116.94 12.52 128.26 9.43"/><polygon class="cls-7" points="144.2 15.98 147.32 13.42 149.22 13.16 156.04 16.75 159.14 19.44 162.35 25.72 163.32 32.77 163.2 38.47 161.06 43.18 158.21 46.15 154.95 46.08 149.65 45.8 144.61 45.31 142.84 43.83 145.96 35.75 145.12 30.12 144.63 25.7 144.05 21.52 144.2 15.98"/><path class="cls-8" d="M103.27,34.09C102.9,16.35,117,12.52,117,12.52,135.36,3.28,155.8,17,155.8,17c9.52,5.88,7.16,21.72,7.16,21.72-.87,4.67-5,7.68-5,7.68C132.33,50,103.27,34.09,103.27,34.09Z"/><polygon class="cls-9" points="133.89 14.44 142.97 15.7 144.05 23.52 144.87 30.37 144.49 36.64 143.16 41.91 139.89 44.46 119.37 39.75 119.81 36.45 122.3 30.96 124.62 23.92 128.53 17.86 131.31 14.8 133.89 14.44"/><path class="cls-10" d="M103.27,34.09c-9,1.25-9.92,10.45-9.92,10.45C95,56.55,125,57.14,125,57.14a65.34,65.34,0,0,0,28.61-4c5.06-3.38,4.36-6.79,4.36-6.79A136.42,136.42,0,0,1,103.27,34.09Z"/><ellipse class="cls-10" cx="139.34" cy="9.09" rx="7.54" ry="9.31" transform="translate(108.46 145.27) rotate(-80.96)"/><path class="cls-8" d="M132.65,14C126,20.05,122.6,27,119.22,39.07"/><path class="cls-8" d="M141.61,16.56c5,14.08,3.76,20.17.28,29.49"/><path class="cls-5" d="M36.37,194.81c-6,8.75-5.5,22-5.5,22,2,4.5,28.75,4,28.75,4,6-3.75,9-22.5,9-22.5C54.12,188.81,36.37,194.81,36.37,194.81Z"/><path class="cls-5" d="M33.59,218.64c-2.73,4.67,1.28,9.42,1.28,9.42,7.25,4.25,26.5,2.51,26.5,2.51-2.5-4-1.75-9.76-1.75-9.76C48.12,221.31,33.59,218.64,33.59,218.64Z"/><path class="cls-2" d="M222.13,146c4.91-11.45,13.64-25.77,22.88-23.34,22.33,5.89-5.5,47.92-22.88,54.44"/></g></g></svg>