<svg xmlns="http://www.w3.org/2000/svg" xmlns:xlink="http://www.w3.org/1999/xlink" viewBox="0 0 627.9 779.49"><defs><style>.cls-1{fill:#fff;}.cls-2{fill:url(#linear-gradient);}.cls-3{fill:none;stroke:#fff;stroke-miterlimit:10;stroke-width:11.29px;}</style><linearGradient id="linear-gradient" x1="76.95" y1="389.26" x2="523.89" y2="389.26" gradientUnits="userSpaceOnUse"><stop offset="0" stop-color="#2575f4"/><stop offset="1" stop-color="#33b8ae"/></linearGradient></defs><g id="Layer_2" data-name="Layer 2"><g id="Layer_1-2" data-name="Layer 1"><path class="cls-1" d="M0,0H214.36V779.49H0ZM107.18,622.83V0H358.44Q433.77,0,487.1,23.5T568.75,91q28.31,44,28.31,105.61v1.08q0,45.38-19.71,81.57a166,166,0,0,1-53.84,59.15q-34.14,23-76.6,28.9v4.32q49,1.08,90.25,25.39a187.53,187.53,0,0,1,66,65.09q24.76,40.78,24.77,91.56v1.08q0,67.53-31.85,118t-89.48,78.6q-57.63,28.1-136,28.09H107.18Z"/><path class="cls-2" d="M425.56,372.83c61.81-148.51-51-218-51-218-121.91-72.12-213.8,23.87-213.42,23.44C2,351.3,117.29,533.4,117.29,533.4c62.94,100.06,175.08,115.49,175.08,115.49,156.83,14.5,231.52-73.2,231.52-73.2-92,57.37-167.61,13.42-167.61,13.42-134.92-78.78-75.87-215.69-75.87-215.69,25-60.69,65.36-72.37,65.36-72.37C413.78,281.73,425.56,372.83,425.56,372.83Z"/><path class="cls-3" d="M420.18,375.06C388.63,175.22,24.72,333.41,139.72,574.17"/></g></g></svg>