<svg xmlns="http://www.w3.org/2000/svg" viewBox="0 0 197.52 252.04"><defs><style>.cls-1{fill:#e8bd9a;}.cls-2,.cls-3{fill:none;stroke:#280003;}.cls-2,.cls-3,.cls-4{stroke-miterlimit:10;}.cls-2{stroke-width:5px;}.cls-3{stroke-width:4px;}.cls-4{font-size:42px;fill:#f9e364;stroke:#000;stroke-width:3px;font-family:MontserratAlternates-Black, Montserrat Alternates;font-weight:800;}</style></defs><g id="Layer_2" data-name="Layer 2"><g id="Layer_1-2" data-name="Layer 1"><path class="cls-1" d="M39.13,3.68c22,.52,37.55,20.92,37.55,20.92A50,50,0,0,1,93.9,21.52C65.31,61.85,10.65,79.71,10.65,79.71,17.26,66.19,25,62.57,25,62.57,16.4,25.48,23.7,13.26,23.7,13.26,28,1.6,39.13,3.68,39.13,3.68Z"/><path class="cls-2" d="M191.32,130.35s8.77-39.29-14.86-68.07c0,0,7.15-49.75-14.62-58.61,0,0-19.68-.38-42.6,21.11a70,70,0,0,0-40.86-1.35S58.26-1.53,34.14,3.06c0,0-22.18,2.76-10.7,58.5,0,0-29.11,18.2-18.27,68.79-6,22.44,0,32.19,0,32.19-2.42,30.17,10.53,50,10.53,50-9,13.5-.78,33.28-.78,33.28,26.25.75,32.57-19.5,32.57-19.5,49.18,15,100.18,0,100.18,0,3,23.25,27.75,23.25,27.75,23.25,12-9.75,4.5-36,4.5-36,18.75-27.75,13-47.93,13-47.93C198.41,140,191.32,130.35,191.32,130.35Z"/><line class="cls-3" x1="88.05" y1="84.29" x2="104.43" y2="97.54"/><line class="cls-3" x1="103.69" y1="84.1" x2="88.19" y2="97.72"/><path class="cls-3" d="M64.38,142.48c8-9.53,21.48-22,28.65-15.72,8.51,7.47-2,20.93-7.17,29.57"/><path class="cls-3" d="M130.62,142.48c-8-9.53-21.48-22-28.66-15.72-8.51,7.47,2.05,20.93,7.18,29.57"/><text class="cls-4" transform="translate(50.57 101.29)">$</text><text class="cls-4" transform="translate(117.71 101.29)">$</text></g></g></svg>