<svg xmlns="http://www.w3.org/2000/svg" viewBox="0 0 215.71 276.28"><defs><style>.cls-1{fill:#fe7b95;}.cls-1,.cls-2,.cls-5,.cls-6,.cls-7{stroke:#280003;stroke-miterlimit:10;}.cls-1,.cls-2,.cls-6{stroke-width:5px;}.cls-2{fill:#ffc39e;}.cls-3{fill:#e8bd9a;}.cls-4{fill:#ffbc9d;}.cls-5,.cls-6,.cls-7{fill:none;}.cls-5{stroke-width:3px;}.cls-7{stroke-width:4px;}.cls-8{fill:#fabdd5;}</style></defs><g id="Layer_2" data-name="Layer 2"><g id="Layer_1-2" data-name="Layer 1"><rect class="cls-1" x="17.2" y="161.03" width="181.32" height="91.86"/><path class="cls-2" d="M19.17,133.94c-6.18-1.51-13-.83-15.44,5.81-9.07,24.24,34.36,32.41,50,35,20.22,3.35,40.79,3.69,61.23,2.81,19.61-.85,40.13-1.38,59.38-5.47,1-.2,1.92-.42,2.88-.65A110.26,110.26,0,0,0,198.88,164c6.87-3.31,14.2-7.09,14.33-15.69s-9.41-15.13-17.33-12.52c-10.16,3.35-19.93,7.49-30.31,10.27-22.9,6.15-46,7.73-69.66,7.29a179.55,179.55,0,0,1-46.51-7,165.88,165.88,0,0,1-20.3-7.73C26,137.21,22.48,134.75,19.17,133.94Z"/><path class="cls-3" d="M47.71,4.52C69.55,5,84.93,25.58,84.93,25.58A48.64,48.64,0,0,1,102,22.48C73.66,63.08,19.47,81.05,19.47,81.05,26,67.44,33.74,63.8,33.74,63.8c-8.57-37.33-1.33-49.64-1.33-49.64C36.69,2.42,47.71,4.52,47.71,4.52Z"/><path class="cls-2" d="M19.17,229.75c-6.18-1.51-13-.83-15.44,5.81-9.07,24.24,34.36,32.41,50,35,20.22,3.35,40.79,3.68,61.23,2.81,19.61-.85,40.13-1.39,59.38-5.47,1-.21,1.92-.42,2.88-.65a110.26,110.26,0,0,0,21.71-7.45c6.87-3.31,14.2-7.09,14.33-15.69S203.8,229,195.88,231.59c-10.16,3.35-19.93,7.49-30.31,10.27-22.9,6.14-46,7.73-69.66,7.29a179.55,179.55,0,0,1-46.51-7,165.88,165.88,0,0,1-20.3-7.73C26,233,22.48,230.55,19.17,229.75Z"/><path class="cls-4" d="M65.43,212.44a3.3,3.3,0,0,1,.4-.9c4.93-8.37,14.29-13.83,23.67-15.66,7.23-1.4,14.73-.63,21.84,1a29.36,29.36,0,0,1,9.14,3.34c.66.41,4.76,4.37,4.76,4.37a4.06,4.06,0,0,0,4.71.51s4.2-2.61,7.79-4.3c3.18-1.5,5.26-3.6,8.71-1.6,3.66,2.12,6.32,6.4,7.23,10.45,1.27,5.65-2,19.73-9.92,18.7-5.91-.78-14.29-5.9-14.29-5.9a4.35,4.35,0,0,0-4.82.42s-4.53,4-5.15,4.41a30.45,30.45,0,0,1-12.8,5.47c-7.42,1.3-15.65,1.43-22.89-1.3-8.29-3.13-13.52-10.23-18-17.54a2.47,2.47,0,0,1-.43-1A1.26,1.26,0,0,1,65.43,212.44Z"/><path class="cls-5" d="M65.43,212.44a3.3,3.3,0,0,1,.4-.9c4.93-8.37,14.29-13.83,23.67-15.66,7.23-1.4,14.73-.63,21.84,1a29.36,29.36,0,0,1,9.14,3.34c.66.41,4.76,4.37,4.76,4.37a4.06,4.06,0,0,0,4.71.51s4.2-2.61,7.79-4.3c3.18-1.5,5.26-3.6,8.71-1.6,3.66,2.12,6.32,6.4,7.23,10.45,1.27,5.65-2,19.73-9.92,18.7-5.91-.78-14.29-5.9-14.29-5.9a4.35,4.35,0,0,0-4.82.42s-4.53,4-5.15,4.41a30.45,30.45,0,0,1-12.8,5.47c-7.42,1.3-15.65,1.43-22.89-1.3-8.29-3.13-13.52-10.23-18-17.54a2.47,2.47,0,0,1-.43-1A1.26,1.26,0,0,1,65.43,212.44Z"/><path class="cls-4" d="M89.42,203.44c7.62,7.62,5.51,16.75-.5,22"/><path class="cls-5" d="M89.42,203.44c7.62,7.62,5.51,16.75-.5,22"/><path class="cls-4" d="M104.17,204.44c7.19,4.62,3.12,9.37.75,11"/><path class="cls-5" d="M104.17,204.44c7.19,4.62,3.12,9.37.75,11"/><path class="cls-4" d="M104.17,214.4c6,3.47,4.94,8,.75,11"/><path class="cls-5" d="M104.17,214.4c6,3.47,4.94,8,.75,11"/><path class="cls-4" d="M117.23,208.19a6.87,6.87,0,0,1,0,11.25"/><path class="cls-5" d="M117.23,208.19a6.87,6.87,0,0,1,0,11.25"/><line class="cls-4" x1="81.11" y1="210.58" x2="81.01" y2="213.81"/><line class="cls-5" x1="81.11" y1="210.58" x2="81.01" y2="213.81"/><path class="cls-6" d="M14.86,132.2C3,81.83,31.79,63.06,31.79,63.06,19.23,7.56,41.36,4.38,41.36,4.38,65.38-.69,86,23.88,86,23.88a69.92,69.92,0,0,1,40.88.56C149.36,2.5,169,2.5,169,2.5c21.94,8.44,15.75,58.31,15.75,58.31,24.19,28.31,17.07,71.44,17.07,71.44C98.17,179.69,14.86,132.2,14.86,132.2Z"/><path class="cls-7" d="M55,82.37c6.61-10.68,21.75-10.54,27.23,0"/><path class="cls-7" d="M129.11,82.88c6.61-10.69,21.75-10.55,27.23,0"/><line class="cls-7" x1="96.15" y1="85.62" x2="112.52" y2="98.87"/><line class="cls-7" x1="111.79" y1="85.44" x2="96.29" y2="99.06"/><path class="cls-7" d="M39.48,134c4.92-11.45,14.19-27.29,22.88-23.33,10.31,4.68,4.1,20.62,1.68,30.37"/><path class="cls-7" d="M169.22,134c-4.92-11.45-14.19-27.29-22.88-23.33-10.31,4.68-4.1,20.62-1.68,30.37"/><circle class="cls-8" cx="65.39" cy="94.81" r="11.44"/><circle class="cls-8" cx="145.79" cy="94.81" r="11.44"/></g></g></svg>