<svg id="图层_1" data-name="图层 1" xmlns="http://www.w3.org/2000/svg" viewBox="0 0 248.08 87.94"><defs><style>.cls-1{fill:#fff;}</style></defs><path class="cls-1" d="M62.09,46.8H44.84a116.55,116.55,0,0,1-4,39.55l9.25,17c12.25-5.25,12-56.5,12-56.5" transform="translate(-40.84 -24.3)"/><path class="cls-1" d="M118.09,46.8H100.84s-.25,51.25,12,56.5l9.25-17a116.55,116.55,0,0,1-4-39.55" transform="translate(-40.84 -24.3)"/><path class="cls-1" d="M73,98.34H62.09c0,12.71,10.75,13.83,10.75,13.83h5.5c11,0,11.5-12.62,11.5-12.62V24.3H73Z" transform="translate(-40.84 -24.3)"/><path class="cls-1" d="M131,62.3h11.24l-8.57,17.5s-5,9.83,3,10.16h18.66l7.46-13.54h-9.32a1.58,1.58,0,0,1-1.41-2.31L166,46.8H149.84l-1,2h-1.07a1.59,1.59,0,0,1-1.41-2.31L158,24.3H141.84L128,52.13S123,62,131,62.3" transform="translate(-40.84 -24.3)"/><path class="cls-1" d="M133.47,95.42A4.71,4.71,0,0,1,130,94.23l-8.37,16.13a5.32,5.32,0,0,0,4.18,1.87h20.75l8.88-16.81Z" transform="translate(-40.84 -24.3)"/><polygon class="cls-1" points="155.33 22.5 166 22.5 166 5.33 127.83 5.33 127.83 22.5 138.67 22.5 138.67 71.67 122.67 71.67 114.63 87.88 171.5 87.88 171.5 71.67 155.33 71.67 155.33 22.5"/><path class="cls-1" d="M272.63,59.46h-2V48.36a18.83,18.83,0,0,0-18.82-18.83h-6.51V24.3h-16.5v5.23H218.48V46.36h10.36v13.1h-16.5V76.3h16.5v35.87h16.5V76.3h22.71a4,4,0,0,1,4,4V98H256.35a14.16,14.16,0,0,0,14.16,14.16h4.26A14.16,14.16,0,0,0,288.93,98V75.75a16.3,16.3,0,0,0-16.3-16.29m-27.29-13.1h5.93a2.57,2.57,0,0,1,2.57,2.57V59.46h-8.5Z" transform="translate(-40.84 -24.3)"/><path class="cls-1" d="M288.68,37.8a8.17,8.17,0,0,0-16.34,0V46h8.17a8.16,8.16,0,0,0,8.17-8.16" transform="translate(-40.84 -24.3)"/></svg>