<svg xmlns="http://www.w3.org/2000/svg" viewBox="0 0 197.52 252.04"><defs><style>.cls-1{fill:#e8bd9a;}.cls-2,.cls-3,.cls-7{fill:none;}.cls-2,.cls-3,.cls-7,.cls-8,.cls-9{stroke:#280003;}.cls-10,.cls-2,.cls-3,.cls-6,.cls-7,.cls-8,.cls-9{stroke-miterlimit:10;}.cls-2{stroke-width:5px;}.cls-3{stroke-width:4px;}.cls-4,.cls-6{fill:#ffb4c7;}.cls-5{fill:#7f9cff;}.cls-10,.cls-6{stroke:#000;}.cls-6{stroke-width:2.22px;}.cls-7{stroke-width:3px;}.cls-8,.cls-9{fill:#e8ff94;}.cls-8{stroke-width:2px;}.cls-10{fill:#97c4ff;}</style></defs><g id="Layer_2" data-name="Layer 2"><g id="Layer_1-2" data-name="Layer 1"><path class="cls-1" d="M40.25,3.38c22,1,37,21.68,37,21.68A49.48,49.48,0,0,1,94.48,22.3C65.21,62.14,10.38,79,10.38,79c6.85-13.41,14.68-16.88,14.68-16.88-7.89-37.31-.38-49.41-.38-49.41C29.21,1.08,40.25,3.38,40.25,3.38Z"/><path class="cls-2" d="M191.32,130.35s8.77-39.29-14.86-68.07c0,0,7.15-49.75-14.62-58.61,0,0-19.68-.38-42.6,21.11a70,70,0,0,0-40.86-1.35S58.26-1.53,34.14,3.06c0,0-22.18,2.76-10.7,58.5,0,0-29.11,18.2-18.27,68.79-6,22.44,0,32.19,0,32.19-2.42,30.17,10.53,50,10.53,50-9,13.5-.78,33.28-.78,33.28,26.25.75,32.57-19.5,32.57-19.5,49.18,15,100.18,0,100.18,0,3,23.25,27.75,23.25,27.75,23.25,12-9.75,4.5-36,4.5-36,18.75-27.75,13-47.93,13-47.93C198.41,140,191.32,130.35,191.32,130.35Z"/><line class="cls-3" x1="90.53" y1="92.16" x2="106.64" y2="105.73"/><line class="cls-3" x1="90.41" y1="105.6" x2="106.17" y2="92.28"/><path class="cls-3" d="M15.36,132.63c20.55-13.35,39.53-22.82,40.22-10.48.82,14.62-19.22,29.71-35.39,42.4"/><path class="cls-3" d="M48.06,78.21c6.61-10.69,21.75-10.55,27.24,0"/><path class="cls-3" d="M122.22,78.71c6.61-10.69,21.75-10.55,27.24,0"/><polygon class="cls-4" points="58.8 75.44 62.84 74.73 67.07 74.73 71.66 74.73 75.02 74.73 73.44 84.3 72.6 95.46 72.22 109.71 72.41 119.46 74.38 128.27 75.3 131.69 58.8 131.49 55.27 128.78 51.36 122.98 50.84 112.99 51.03 84.6 53.7 78.96 58.8 75.44"/><polygon class="cls-5" points="80.94 74.73 136.73 74.91 141.1 76.61 144.97 80.58 146.64 85.78 146.64 92.93 146.35 122.27 143.25 127.87 139.16 130.62 135.32 131.49 75.3 131.69 74.47 120.58 74.47 97.24 76.25 77.37 77.38 74.85 80.94 74.73"/><path class="cls-3" d="M180.8,132.63c-20.55-13.35-39.53-22.82-40.22-10.48-.82,14.62,19.22,29.71,35.39,42.4"/><circle class="cls-6" cx="94.73" cy="102.24" r="17.25"/><rect class="cls-7" x="50.83" y="74.73" width="95.85" height="56.76" rx="12"/><path class="cls-8" d="M69.87,131c-4.34-16.84-4.23-36-.17-55.72h7.67C73.32,95,72.94,114.19,77.28,131Z"/><circle cx="94.73" cy="102.24" r="12.89"/><rect class="cls-9" x="125.69" y="82.38" width="13.75" height="9.75" rx="4.87"/><path class="cls-10" d="M145.63,106.25l-19.94.18v23.9h6.78a37.29,37.29,0,0,0,4.23,0,8.94,8.94,0,0,0,3.74-1.23,10.23,10.23,0,0,0,2.72-2.65,12.11,12.11,0,0,0,1.9-3.63,16.28,16.28,0,0,0,.59-5.34q0-3.83,0-7.64C145.63,109.62,145.62,106.25,145.63,106.25Z"/></g></g></svg>