<svg id="Layer_1" data-name="Layer 1" xmlns="http://www.w3.org/2000/svg" viewBox="0 0 144.44 117.66"><defs><style>.cls-1{fill:#fff;fill-rule:evenodd;}</style></defs><path class="cls-1" d="M353.85,441.56a61.28,61.28,0,0,1,6.68-.4h.52a59.55,59.55,0,0,1,6.71.4c.89.1,1.77.22,2.65.36q1,.16,2.07.36l1.73.37,1.53.36,1.37.36,1.26.37c.39.11.77.24,1.16.36l1.09.36,1,.37,1,.36.91.37c.3.11.59.24.88.36l.84.36.8.37c.26.11.51.24.77.36l.74.36.72.37.69.36.67.36.64.37.63.36.61.36.59.37.58.36.56.37.54.36.53.36.52.37.5.36.49.36.48.37.47.36.45.36.45.37.44.36.42.36.42.37.41.36.39.37.39.36.38.36.38.37.36.36.36.36.35.37.34.36.33.36.33.37.32.36.31.36.31.37.3.36.29.37.29.36.28.36c.09.12.19.24.28.37l.26.36.27.36.26.37.25.36.24.36.24.37.24.36.23.37.23.36.21.36c.08.12.15.24.22.37l.21.36.2.36c.07.12.14.24.2.37l.2.36.19.36.18.37.18.36.18.36c.06.13.11.25.17.37s.11.24.17.36l.16.37.15.36c.06.12.11.24.16.36l.15.37c0,.12.09.24.14.36l.14.36c.05.12.09.25.14.37s.08.24.13.36l.12.36c0,.13.09.25.13.37l.12.36c0,.12.07.24.11.37s.08.24.11.36.07.24.11.36.07.24.1.37.07.24.1.36l.09.36c0,.12.07.24.1.37s.05.24.08.36.06.24.08.36l.06.24h0c-.93-.1-1.85-.18-2.79-.24-.71,0-1.42-.06-2.14-.06s-1.62,0-2.42.06c-1.33.07-2.65.19-3.94.37-.77.1-1.53.22-2.29.36-.59.11-1.18.23-1.76.36l-1.51.37c-.44.11-.87.23-1.3.36L393,479l-1.08.36-1,.36-.93.37-.88.36-.82.36-.79.37-.74.36-.71.36c-.23.12-.46.24-.68.37l-.66.36-.63.36-.6.37-.59.36c-.19.12-.38.24-.56.37l-.55.36-.53.36-.51.37-.5.36-.48.36-.47.37-.46.36-.43.36-.44.37-.42.36-.4.36-.4.37-.39.36-.38.37-.37.36-.36.36-.35.37-.34.36-.34.36-.33.37-.31.36-.32.36-.3.37-.3.36-.29.37-.28.36-.28.36-.27.37-.27.36L371,495l-.26.37-.24.36-.24.36-.24.37c-.07.12-.15.24-.23.36l-.22.36c-.07.13-.15.25-.22.37l-.21.36-.21.37c-.07.12-.14.24-.2.36s-.14.24-.2.36-.13.24-.19.37-.13.24-.19.36-.12.24-.19.36l-.18.37c-.05.12-.11.24-.17.36l-.17.36c-.05.13-.11.25-.16.37s-.11.24-.16.36-.11.24-.16.36l-.15.37-.15.36c-.05.12-.1.24-.14.37l-.14.36-.14.36c0,.12-.08.25-.13.37l-.12.36-.13.36c0,.12-.07.25-.11.37l-.12.36c0,.12-.07.24-.11.36s-.07.25-.1.37-.07.24-.11.36l-.09.37c0,.12-.07.24-.1.36l-.09.36-.09.37c0,.12-.05.24-.08.36s-.06.24-.08.36-.05.25-.08.37-.05.24-.07.36-.05.24-.07.36l-.06.37c0,.12-.05.24-.07.36s0,.24-.05.36,0,.25-.05.37l-.06.36c0,.12,0,.24,0,.37s0,.24,0,.36,0,.24,0,.36l0,.37c0,.12,0,.24,0,.36l0,.36c0,.12,0,.25,0,.37s0,.24,0,.36,0,.24,0,.36,0,.25,0,.37,0,.24,0,.36,0,.24,0,.36v.37c0,.12,0,.24,0,.36v.37c0,.12,0,.24,0,.36s0,.24,0,.36,0,.25,0,.37,0,.24,0,.36,0,.24,0,.36l0,.37,0,.36a2.19,2.19,0,0,0,0,.36l0,.37c0,.12,0,.24,0,.36s0,.24,0,.37,0,.24,0,.36,0,.24,0,.36l.06.37c0,.12,0,.24.05.36l.06.36c0,.12,0,.25.07.37l.06.36c0,.12.05.24.07.36s.05.25.08.37.05.24.08.36,0,.24.08.36.05.25.08.37l.09.36.09.37c0,.12.06.24.1.36s.06.24.1.36.06.25.1.37l.06.2c-.86.07-1.72.12-2.59.16s-1.45,0-2.18,0-1.41,0-2.09,0c-1.43-.06-2.81-.19-4.17-.36-.83-.11-1.65-.23-2.48-.37L350,527l-1.87-.36-1.79-.37-1.77-.36-1.69-.34-.68.34-.72.36-.73.37L340,527l-.73.36-.72.37-.73.36-.72.36-.73.37-.73.36-.72.36-.73.37-.72.36-.73.36L332,531l-.73.36-.72.37-.73.36-.72.36-.73.37-.72.36-.73.36-.72.37-.73.36-.51.26.08-.26.12-.36.12-.37.12-.36.13-.36.12-.37.12-.36.12-.36.12-.37.12-.36.12-.37.12-.36.12-.36.12-.37.12-.36.13-.36.12-.37.12-.36.12-.36.12-.37.12-.36.12-.36.12-.37.12-.36.12-.37.12-.36.13-.36.12-.37.12-.36.12-.36.12-.37.12-.36.12-.36.12-.37.12-.36.12-.36.12-.37.13-.36.12-.37.12-.36.12-.36.12-.37.07-.21-.22-.15-.51-.36-.5-.37-.49-.36-.48-.36-.48-.37-.46-.36-.46-.37-.45-.36-.44-.36-.43-.37-.43-.36-.41-.36-.41-.37-.4-.36-.4-.36-.38-.37-.38-.36-.37-.36-.36-.37-.36-.36c-.12-.12-.24-.24-.35-.37l-.35-.36-.33-.36-.33-.37-.32-.36-.32-.36c-.11-.12-.21-.25-.31-.37l-.31-.36-.29-.36-.3-.37-.28-.36-.28-.36c-.09-.13-.19-.25-.28-.37l-.26-.36-.27-.37-.25-.36-.25-.36c-.09-.12-.17-.25-.25-.37l-.24-.36-.23-.36-.23-.37-.23-.36-.21-.36-.22-.37c-.07-.12-.14-.24-.2-.36l-.21-.37-.19-.36-.2-.36-.18-.37c-.07-.12-.13-.24-.19-.36l-.18-.36c-.05-.12-.11-.25-.17-.37l-.17-.36-.16-.36c-.06-.12-.11-.25-.16-.37l-.15-.36c-.05-.12-.11-.24-.15-.36l-.15-.37-.14-.36c-.05-.12-.09-.24-.14-.37s-.08-.24-.13-.36-.08-.24-.13-.36l-.12-.37-.12-.36c0-.12-.07-.24-.11-.36s-.07-.25-.11-.37-.07-.24-.11-.36-.06-.24-.1-.36-.06-.25-.1-.37l-.09-.36-.09-.36c0-.13-.06-.25-.08-.37s-.06-.24-.08-.36-.06-.24-.08-.37-.05-.24-.08-.36l-.06-.36c0-.12,0-.24-.07-.37l-.06-.36-.06-.36c0-.12,0-.25-.05-.37s0-.24,0-.36,0-.24-.05-.36,0-.25,0-.37,0-.24,0-.36,0-.24,0-.37l0-.36,0-.36c0-.12,0-.24,0-.37s0-.24,0-.36,0-.24,0-.36,0-.25,0-.37,0-.24,0-.36v-.36c0-.12,0-.25,0-.37v-.36c0-.12,0-.24,0-.36s0-.25,0-.37v-.36c0-.12,0-.24,0-.37s0-.24,0-.36,0-.24,0-.36,0-.24,0-.37l0-.36,0-.36c0-.13,0-.25,0-.37l0-.36c0-.12,0-.24,0-.36s0-.25.05-.37,0-.24,0-.36,0-.24.05-.36l.06-.37.06-.36.06-.37c0-.12.05-.24.07-.36s.05-.24.07-.36.05-.25.07-.37.06-.24.08-.36l.09-.36c0-.12.05-.25.08-.37l.09-.36.09-.36c0-.13.07-.25.1-.37s.07-.24.1-.36.07-.24.11-.36.07-.25.11-.37.07-.24.11-.36l.12-.37.12-.36c0-.12.08-.24.13-.36l.12-.37.14-.36c0-.12.09-.24.14-.36l.13-.37.15-.36.15-.36.15-.37.17-.36.16-.37.16-.36.18-.36c.06-.12.12-.25.17-.37l.19-.36L314,467c.07-.12.13-.25.19-.37l.2-.36.2-.36.2-.37.22-.36.21-.36c.07-.13.15-.25.22-.37l.23-.36.23-.37c.07-.12.15-.24.23-.36l.24-.36c.09-.12.17-.25.25-.37l.26-.36.25-.36.27-.37.27-.36.27-.36.29-.37.28-.36.3-.37.3-.36.31-.36.31-.37.33-.36c.1-.12.22-.24.33-.36l.33-.37.35-.36.34-.36.37-.37.36-.36.38-.36.38-.37.4-.36.4-.37.41-.36.42-.36.43-.37.45-.36.45-.36.46-.37.48-.36.49-.36c.16-.13.33-.25.5-.37l.51-.36.53-.36.54-.37.56-.36.58-.37.59-.36.61-.36.63-.37.65-.36.68-.36.69-.37.73-.36.75-.36.78-.37.82-.36c.29-.13.57-.25.86-.36l.9-.37.95-.36,1-.37,1.06-.36c.38-.12.76-.25,1.15-.36l1.23-.37,1.36-.36c.5-.13,1-.25,1.51-.36l1.7-.37c.68-.13,1.37-.25,2.06-.36.87-.14,1.76-.26,2.65-.36ZM396.57,500a5.12,5.12,0,0,0,0,10.23c3.87,0,6.4-2.53,6.4-5.12s-2.53-5.11-6.4-5.11Zm28.12,0a5.12,5.12,0,0,0,0,10.23c3.83,0,6.4-2.53,6.4-5.12s-2.57-5.11-6.4-5.11ZM344.17,462.9c-3.83,0-7.7,2.53-7.7,6.38s3.87,6.39,7.7,6.39a6.39,6.39,0,0,0,0-12.77ZM380,475.67a6.39,6.39,0,1,0,0-12.77c-3.84,0-7.68,2.53-7.68,6.38s3.84,6.39,7.68,6.39Zm-1.46,15.91.33-.31.34-.31.35-.31.35-.31.37-.31.37-.3.39-.31.39-.31c.13-.11.27-.21.41-.31l.41-.31.42-.31.44-.31.45-.31.46-.31.47-.3.49-.31.49-.31L386,486l.53-.31.55-.31.57-.31.59-.31.61-.3.64-.31.67-.31.69-.31.73-.31.76-.31.8-.31.85-.31.91-.31,1-.3,1.05-.31,1.15-.31,1.28-.31,1.44-.31c.58-.11,1.17-.22,1.75-.31.75-.12,1.5-.22,2.26-.31a52.33,52.33,0,0,1,5.78-.33h.27a47.94,47.94,0,0,1,5.51.33c.72.09,1.45.19,2.17.31.56.09,1.13.2,1.69.31l1.4.31,1.25.31,1.13.31,1,.31.95.3.89.31.84.31.79.31.76.31.72.31.69.31.66.31.64.31.61.3.59.31.58.31.55.31.53.31.53.31.5.31.49.31.48.3.46.31.45.31.44.31.44.31.41.31c.14.1.28.2.41.31l.4.31.39.31.38.3.38.31.36.31.36.31.34.31.35.31.33.31c.11.1.22.2.32.31s.22.2.32.31l.32.3.3.31.3.31.3.31.28.31a3336027155563.25,3336027155563.25,0,0,1,.56.62l.27.31.26.3.26.31c.08.11.17.21.25.31s.17.21.25.31l.24.31.24.31a3.55,3.55,0,0,1,.23.31,3.55,3.55,0,0,1,.23.31,3.46,3.46,0,0,1,.22.31l.22.3.21.31.21.31.21.31.2.31.19.31a3.21,3.21,0,0,1,.19.31,3.21,3.21,0,0,1,.19.31l.18.31.18.3.17.31.17.31.17.31.16.31c.06.1.11.21.16.31l.15.31c0,.1.11.2.16.31s.09.2.14.3.09.21.14.31.1.21.14.31.09.21.13.31.09.21.14.31l.12.31c.05.1.09.21.13.31l.12.31a2.83,2.83,0,0,1,.11.31l.12.3a2.83,2.83,0,0,0,.11.31c0,.11.07.21.1.31s.07.21.1.31.07.21.11.31l.09.31.09.31.09.31.09.31c0,.1.05.2.08.3a2.81,2.81,0,0,0,.08.31c0,.11.05.21.07.31s.05.21.07.31.05.21.07.31.05.21.07.31l.06.31.06.31a2.87,2.87,0,0,1,.05.31l.06.3a2.87,2.87,0,0,0,.05.31c0,.11,0,.21,0,.31s0,.21,0,.31,0,.21.05.31l0,.31,0,.31a3,3,0,0,1,0,.31l0,.3c0,.11,0,.21,0,.31l0,.31c0,.11,0,.21,0,.31s0,.21,0,.31,0,.21,0,.31V516c0,.1,0,.2,0,.31v.92c0,.11,0,.21,0,.31s0,.21,0,.31,0,.21,0,.31,0,.21,0,.31l0,.31c0,.1,0,.2,0,.31l0,.31c0,.1,0,.2,0,.3a5590340579231.6,5590340579231.6,0,0,1-.08.62c0,.1,0,.21-.05.31s0,.21,0,.31l-.06.31a2.87,2.87,0,0,0-.05.31c0,.1,0,.2-.07.31l-.06.31c0,.1,0,.2-.07.3s-.05.21-.07.31-.05.21-.07.31-.06.21-.08.31l-.09.31c0,.1-.05.21-.08.31l-.09.31c0,.1-.07.2-.1.31l-.09.3c0,.11-.07.21-.11.31s-.07.21-.1.31-.07.21-.11.31-.08.21-.11.31l-.12.31-.12.31-.13.31-.12.31-.14.3c0,.11-.09.21-.13.31s-.1.21-.14.31l-.15.31c0,.1-.09.21-.14.31s-.1.21-.16.31l-.15.31c-.05.1-.11.2-.16.31s-.11.2-.16.31l-.17.3-.17.31-.18.31-.18.31-.18.31-.19.31-.19.31c-.06.1-.13.2-.19.31l-.2.3-.21.31-.21.31-.21.31-.21.31-.23.31-.22.31-.23.31-.23.31-.24.3-.24.31c-.08.11-.17.21-.25.31s-.17.21-.25.31l-.26.31-.26.31-.26.31-.27.31-.27.31-.28.3c-.09.11-.19.21-.28.31l-.29.31-.29.31-.3.31-.3.31-.31.31-.31.31-.32.31-.32.3-.33.31-.33.31-.34.31-.34.31-.35.31-.35.31-.36.31-.37.3-.37.31-.37.31-.38.31-.39.31-.4.31-.4.31-.4.31-.14.1.06.21.09.3.09.31.1.31.09.31.09.31.1.31.09.31.09.31.09.3.1.31.09.31.09.31.1.31.09.31.09.31.09.31.1.31.09.3.09.31.1.31.09.31.09.31.1.31.09.31.09.31.09.31.1.3.09.31.09.31.1.31.09.31.09.31.09.31.1.31.09.31.09.3.1.31.09.31.09.31.1.31.06.22-.4-.22-.56-.31-.57-.31-.56-.31-.57-.31-.56-.3-.56-.31-.57-.31-.56-.31-.57-.31-.56-.31-.56-.31-.57-.31-.56-.31-.56-.3-.57-.31-.56-.31-.57-.31-.56-.31-.56-.31-.57-.31-.56-.31-.57-.31-.56-.3-.56-.31-.09-.05-.2.05-1.23.31-1.26.3-1.29.31-1.36.31-1.46.31-1.63.31c-.66.12-1.32.22-2,.31-1.07.14-2.13.25-3.2.31-.58,0-1.15.05-1.73.05-.76,0-1.51,0-2.25-.05-1.3-.06-2.58-.16-3.84-.31-.75-.09-1.48-.19-2.22-.31-.57-.09-1.15-.2-1.72-.31s-1-.2-1.44-.31l-1.27-.31-1.15-.31c-.35-.09-.7-.2-1-.3l-1-.31-.9-.31-.84-.31-.8-.31-.77-.31-.73-.31-.68-.31-.66-.31-.64-.3-.61-.31-.59-.31-.57-.31-.55-.31c-.18-.1-.36-.2-.53-.31l-.53-.31-.49-.31-.49-.3-.47-.31-.46-.31-.45-.31-.43-.31-.43-.31-.41-.31-.4-.31-.39-.31-.39-.3-.37-.31-.37-.31-.35-.31-.35-.31-.34-.31-.33-.31c-.11-.1-.22-.2-.32-.31l-.32-.3-.31-.31-.31-.31-.3-.31-.29-.31-.28-.31c-.1-.1-.19-.21-.28-.31l-.27-.31-.27-.31-.26-.3c-.08-.11-.17-.21-.25-.31l-.25-.31c-.08-.11-.17-.21-.25-.31l-.24-.31-.23-.31-.23-.31c-.07-.1-.15-.2-.22-.31a3.46,3.46,0,0,1-.22-.31l-.22-.3-.21-.31-.2-.31-.2-.31-.2-.31c-.06-.1-.12-.21-.19-.31l-.19-.31-.18-.31-.18-.31c-.05-.1-.11-.2-.17-.3l-.17-.31-.17-.31-.16-.31c-.05-.1-.1-.21-.16-.31l-.15-.31-.15-.31-.15-.31c-.05-.1-.1-.2-.14-.3s-.09-.21-.14-.31-.09-.21-.14-.31-.09-.21-.13-.31l-.12-.31c-.05-.1-.09-.21-.13-.31l-.12-.31-.12-.31a2.83,2.83,0,0,1-.11-.31c0-.1-.08-.2-.11-.3s-.07-.21-.11-.31a2.83,2.83,0,0,0-.11-.31l-.09-.31c0-.1-.07-.21-.1-.31l-.1-.31c0-.1,0-.2-.08-.31l-.09-.31-.09-.31c0-.1,0-.2-.07-.3s-.06-.21-.08-.31-.05-.21-.08-.31,0-.21-.07-.31l-.06-.31c0-.1-.05-.21-.07-.31l-.06-.31-.06-.31c0-.1,0-.2-.05-.3s0-.21-.05-.31,0-.21-.05-.31,0-.21-.05-.31,0-.21,0-.31,0-.21,0-.31,0-.21,0-.31l0-.31,0-.31c0-.1,0-.2,0-.3l0-.31a3,3,0,0,0,0-.31c0-.11,0-.21,0-.31s0-.21,0-.31l0-.31c0-.1,0-.2,0-.31v-.91h0v-.31c0-.11,0-.21,0-.31v-.31c0-.1,0-.21,0-.31s0-.21,0-.31,0-.2,0-.31a3,3,0,0,0,0-.31l0-.31c0-.1,0-.2,0-.3l0-.31,0-.31,0-.31c0-.1,0-.21,0-.31s0-.21,0-.31a2.91,2.91,0,0,0,0-.31c0-.1,0-.2.05-.31s0-.2.05-.3,0-.21.05-.31l.06-.31.06-.31c0-.1,0-.21.06-.31l.06-.31c0-.1,0-.21.07-.31s0-.2.07-.31.05-.2.08-.31.05-.2.07-.3.05-.21.08-.31l.09-.31.09-.31c0-.1.05-.21.08-.31l.1-.31c0-.1.06-.2.1-.31s.06-.2.1-.31.07-.2.1-.31l.11-.3c0-.11.07-.21.11-.31l.12-.31c0-.1.07-.21.11-.31l.12-.31.13-.31c0-.1.08-.21.13-.31s.09-.2.13-.31.09-.2.14-.31l.13-.3.15-.31.15-.31c0-.1.09-.21.14-.31s.11-.21.16-.31.1-.21.16-.31.11-.2.16-.31l.17-.31.17-.3a3.14,3.14,0,0,1,.18-.31,3.07,3.07,0,0,1,.17-.31,3.21,3.21,0,0,1,.19-.31c.06-.1.12-.21.19-.31l.18-.31a3063813705794.5,3063813705794.5,0,0,0,.4-.62l.21-.31.21-.3.21-.31c.07-.11.15-.21.22-.31l.23-.31.23-.31.23-.31.24-.31.25-.31.25-.31.25-.3.26-.31.27-.31.27-.31c.1-.1.19-.21.28-.31l.29-.31.29-.31.3-.31.3-.3.31-.31.32-.31.33-.31Z" transform="translate(-309.65 -441.16)"/></svg>